<svg width="12" height="13" viewBox="0 0 12 13" fill="none" xmlns="http://www.w3.org/2000/svg">
<path d="M6.00002 0.5C2.6863 0.5 1.52588e-05 3.18628 1.52588e-05 6.5C1.52588e-05 9.81372 2.6863 12.5 6.00002 12.5C9.31373 12.5 12 9.81372 12 6.5C12 3.18628 9.31373 0.5 6.00002 0.5ZM8.8339 8.88918C8.79539 8.93435 7.87158 9.99558 6.17622 9.99558C4.12722 9.99558 2.68064 8.4651 2.68064 6.4738C2.68064 4.50679 4.18073 3.00442 6.15875 3.00442C7.77868 3.00442 8.62564 3.9072 8.66089 3.94565C8.70433 3.99299 8.73083 4.0534 8.73625 4.11742C8.74167 4.18145 8.7257 4.24546 8.69085 4.29943L8.14939 5.13785C8.05143 5.28948 7.84035 5.3157 7.70825 5.19338C7.70261 5.1882 7.06642 4.61564 6.21115 4.61564C5.09544 4.61564 4.42286 5.42794 4.42286 6.45633C4.42286 7.41444 5.04014 8.38436 6.21989 8.38436C7.1561 8.38436 7.79924 7.69877 7.80563 7.69182C7.92979 7.55719 8.14577 7.57006 8.2534 7.7173L8.84728 8.52952C8.88582 8.58224 8.90547 8.64642 8.90304 8.71168C8.90061 8.77694 8.87626 8.83947 8.8339 8.88918Z" fill="#6C6060"/>
</svg>
