<svg width="25" height="25" viewBox="0 0 25 25" fill="none" xmlns="http://www.w3.org/2000/svg">
<g clip-path="url(#clip0_9_3)">
<path d="M23.4375 7.8125V3.77197C23.4375 3.56674 23.397 3.36352 23.3184 3.17392C23.2398 2.98432 23.1247 2.81207 22.9795 2.66699L20.77 0.45752C20.4771 0.164629 20.0798 6.25796e-05 19.6655 0L7.8125 0C7.3981 0 7.00067 0.16462 6.70765 0.457646C6.41462 0.750671 6.25 1.1481 6.25 1.5625V23.4375C6.25 23.8519 6.41462 24.2493 6.70765 24.5424C7.00067 24.8354 7.3981 25 7.8125 25H23.4375C23.8519 25 24.2493 24.8354 24.5424 24.5424C24.8354 24.2493 25 23.8519 25 23.4375V9.375C25 8.9606 24.8354 8.56317 24.5424 8.27015C24.2493 7.97712 23.8519 7.8125 23.4375 7.8125ZM14.0625 21.0938C14.0625 21.301 13.9802 21.4997 13.8337 21.6462C13.6872 21.7927 13.4885 21.875 13.2812 21.875H11.7188C11.5115 21.875 11.3128 21.7927 11.1663 21.6462C11.0198 21.4997 10.9375 21.301 10.9375 21.0938V19.5312C10.9375 19.324 11.0198 19.1253 11.1663 18.9788C11.3128 18.8323 11.5115 18.75 11.7188 18.75H13.2812C13.4885 18.75 13.6872 18.8323 13.8337 18.9788C13.9802 19.1253 14.0625 19.324 14.0625 19.5312V21.0938ZM14.0625 14.8438C14.0625 15.051 13.9802 15.2497 13.8337 15.3962C13.6872 15.5427 13.4885 15.625 13.2812 15.625H11.7188C11.5115 15.625 11.3128 15.5427 11.1663 15.3962C11.0198 15.2497 10.9375 15.051 10.9375 14.8438V13.2812C10.9375 13.074 11.0198 12.8753 11.1663 12.7288C11.3128 12.5823 11.5115 12.5 11.7188 12.5H13.2812C13.4885 12.5 13.6872 12.5823 13.8337 12.7288C13.9802 12.8753 14.0625 13.074 14.0625 13.2812V14.8438ZM20.3125 21.0938C20.3125 21.301 20.2302 21.4997 20.0837 21.6462C19.9372 21.7927 19.7385 21.875 19.5312 21.875H17.9688C17.7615 21.875 17.5628 21.7927 17.4163 21.6462C17.2698 21.4997 17.1875 21.301 17.1875 21.0938V19.5312C17.1875 19.324 17.2698 19.1253 17.4163 18.9788C17.5628 18.8323 17.7615 18.75 17.9688 18.75H19.5312C19.7385 18.75 19.9372 18.8323 20.0837 18.9788C20.2302 19.1253 20.3125 19.324 20.3125 19.5312V21.0938ZM20.3125 14.8438C20.3125 15.051 20.2302 15.2497 20.0837 15.3962C19.9372 15.5427 19.7385 15.625 19.5312 15.625H17.9688C17.7615 15.625 17.5628 15.5427 17.4163 15.3962C17.2698 15.2497 17.1875 15.051 17.1875 14.8438V13.2812C17.1875 13.074 17.2698 12.8753 17.4163 12.7288C17.5628 12.5823 17.7615 12.5 17.9688 12.5H19.5312C19.7385 12.5 19.9372 12.5823 20.0837 12.7288C20.2302 12.8753 20.3125 13.074 20.3125 13.2812V14.8438ZM20.3125 9.375H9.375V3.125H17.1875V5.46875C17.1875 5.67595 17.2698 5.87466 17.4163 6.02118C17.5628 6.16769 17.7615 6.25 17.9688 6.25H20.3125V9.375ZM3.125 6.25H1.5625C1.1481 6.25 0.750671 6.41462 0.457646 6.70765C0.16462 7.00067 0 7.3981 0 7.8125L0 23.4375C0 23.8519 0.16462 24.2493 0.457646 24.5424C0.750671 24.8354 1.1481 25 1.5625 25H3.125C3.5394 25 3.93683 24.8354 4.22985 24.5424C4.52288 24.2493 4.6875 23.8519 4.6875 23.4375V7.8125C4.6875 7.3981 4.52288 7.00067 4.22985 6.70765C3.93683 6.41462 3.5394 6.25 3.125 6.25V6.25Z" fill="black"/>
</g>
<defs>
<clipPath id="clip0_9_3">
<rect width="25" height="25" fill="white"/>
</clipPath>
</defs>
</svg>
