<svg width="18" height="18" viewBox="0 0 18 18" fill="none" xmlns="http://www.w3.org/2000/svg">
<path d="M17.4863 8.86327L9.93944 1.3203L9.43358 0.814441C9.31832 0.699942 9.16245 0.635681 8.99999 0.635681C8.83752 0.635681 8.68165 0.699942 8.56639 0.814441L0.513661 8.86327C0.395558 8.98091 0.302219 9.12102 0.239154 9.27533C0.176089 9.42964 0.144575 9.59502 0.146474 9.76171C0.154286 10.4492 0.726552 10.998 1.41405 10.998H2.24413V17.3594H15.7558V10.998H16.6035C16.9375 10.998 17.2519 10.8672 17.4883 10.6308C17.6046 10.5149 17.6968 10.3769 17.7595 10.2251C17.8222 10.0732 17.8542 9.91038 17.8535 9.74608C17.8535 9.41405 17.7226 9.0996 17.4863 8.86327ZM10.0937 15.9531H7.90624V11.9687H10.0937V15.9531ZM14.3496 9.59178V15.9531H11.3437V11.5C11.3437 11.0683 10.9941 10.7187 10.5625 10.7187H7.43749C7.00585 10.7187 6.65624 11.0683 6.65624 11.5V15.9531H3.65038V9.59178H1.77538L9.00194 2.37108L9.45311 2.82225L16.2266 9.59178H14.3496Z" fill="white"/>
</svg>
