<svg width="22" height="23" viewBox="0 0 22 23" fill="none" xmlns="http://www.w3.org/2000/svg">
<path d="M11 0.5C17.0766 0.5 22 5.42339 22 11.5C22 17.5766 17.0766 22.5 11 22.5C4.92339 22.5 0 17.5766 0 11.5C0 5.42339 4.92339 0.5 11 0.5ZM16.052 10.746L10.0419 4.73589C9.625 4.31895 8.95081 4.31895 8.53831 4.73589L7.78427 5.48992C7.36734 5.90685 7.36734 6.58105 7.78427 6.99355L12.2907 11.5L7.78427 16.0065C7.36734 16.4234 7.36734 17.0976 7.78427 17.5101L8.53831 18.2641C8.95524 18.681 9.62943 18.681 10.0419 18.2641L16.052 12.254C16.469 11.8371 16.469 11.1629 16.052 10.746Z" fill="#D10107"/>
</svg>
