<svg width="22" height="23" viewBox="0 0 22 23" fill="none" xmlns="http://www.w3.org/2000/svg">
<path d="M22 11.5C22 17.5766 17.0766 22.5 11 22.5C4.92339 22.5 0 17.5766 0 11.5C0 5.42339 4.92339 0.5 11 0.5C17.0766 0.5 22 5.42339 22 11.5ZM11.754 16.552L17.7641 10.5419C18.181 10.125 18.181 9.45081 17.7641 9.03831L17.0101 8.28427C16.5931 7.86734 15.919 7.86734 15.5065 8.28427L11 12.7907L6.49355 8.28427C6.07661 7.86734 5.40242 7.86734 4.98992 8.28427L4.23589 9.03831C3.81895 9.45524 3.81895 10.1294 4.23589 10.5419L10.246 16.552C10.6629 16.969 11.3371 16.969 11.754 16.552Z" fill="white"/>
</svg>
