<svg width="22" height="22" viewBox="0 0 22 22" fill="none" xmlns="http://www.w3.org/2000/svg">
<path d="M19.5312 0H2.34375C1.72215 0 1.12601 0.24693 0.686468 0.686469C0.24693 1.12601 0 1.72215 0 2.34375L0 19.5312C0 20.1529 0.24693 20.749 0.686468 21.1885C1.12601 21.6281 1.72215 21.875 2.34375 21.875H19.5312C20.1529 21.875 20.749 21.6281 21.1885 21.1885C21.6281 20.749 21.875 20.1529 21.875 19.5312V2.34375C21.875 1.72215 21.6281 1.12601 21.1885 0.686469C20.749 0.24693 20.1529 0 19.5312 0V0ZM18.731 15.0083L17.9985 18.1821C17.9613 18.3435 17.8705 18.4875 17.741 18.5906C17.6114 18.6937 17.4507 18.7499 17.2852 18.75C9.47266 18.75 3.125 12.4165 3.125 4.58984C3.13081 4.42581 3.18912 4.26797 3.29135 4.13955C3.39357 4.01113 3.53432 3.91891 3.69287 3.87646L6.8667 3.14404C6.92084 3.13259 6.97593 3.12622 7.03125 3.125C7.17288 3.13215 7.31002 3.17708 7.42843 3.25513C7.54683 3.33318 7.64219 3.4415 7.70459 3.56885L9.16943 6.98682C9.20531 7.07897 9.22529 7.17655 9.22852 7.27539C9.21659 7.49221 9.12018 7.69572 8.95996 7.84229L7.10986 9.35596C8.23087 11.7319 10.1431 13.6441 12.519 14.7651L14.0327 12.915C14.1793 12.7548 14.3828 12.6584 14.5996 12.6465C14.6985 12.6497 14.796 12.6696 14.8882 12.7056L18.3062 14.1704C18.4336 14.2327 18.5419 14.3281 18.62 14.4465C18.6981 14.5649 18.743 14.7021 18.75 14.8438C18.749 14.8991 18.7426 14.9542 18.731 15.0083Z" fill="black"/>
</svg>
