<svg width="22" height="23" viewBox="0 0 22 23" fill="none" xmlns="http://www.w3.org/2000/svg">
<path d="M11 0.524902C17.0766 0.524902 22 5.44829 22 11.5249C22 17.6015 17.0766 22.5249 11 22.5249C4.92339 22.5249 0 17.6015 0 11.5249C0 5.44829 4.92339 0.524902 11 0.524902ZM16.052 10.7709L10.0419 4.76079C9.625 4.34385 8.95081 4.34385 8.53831 4.76079L7.78427 5.51482C7.36734 5.93176 7.36734 6.60595 7.78427 7.01845L12.2907 11.5249L7.78427 16.0314C7.36734 16.4483 7.36734 17.1225 7.78427 17.535L8.53831 18.289C8.95524 18.7059 9.62943 18.7059 10.0419 18.289L16.052 12.2789C16.469 11.862 16.469 11.1878 16.052 10.7709Z" fill="#D10107"/>
</svg>
